<mxfile host="app.diagrams.net" modified="2023-12-20T16:42:01.102Z" agent="Mozilla/5.0 (Macintosh; Intel Mac OS X 10_15_7) AppleWebKit/537.36 (KHTML, like Gecko) Chrome/120.0.0.0 Safari/537.36" etag="BpUxlMArqsLclmfFTJZY" version="22.1.11" type="github">
  <diagram name="Page-1" id="Tvc5AN4JsBAUY72hxiAd">
    <mxGraphModel dx="1257" dy="1774" grid="1" gridSize="10" guides="1" tooltips="1" connect="1" arrows="1" fold="1" page="1" pageScale="1" pageWidth="850" pageHeight="1100" math="0" shadow="0">
      <root>
        <mxCell id="0" />
        <mxCell id="1" parent="0" />
        <mxCell id="09l7937I86aq1Zebrn-8-2" value="Policy" style="swimlane;fontStyle=0;childLayout=stackLayout;horizontal=1;startSize=26;fillColor=#b1ddf0;horizontalStack=0;resizeParent=1;resizeParentMax=0;resizeLast=0;collapsible=1;marginBottom=0;html=1;rounded=1;strokeColor=#10739e;" vertex="1" parent="1">
          <mxGeometry x="260" y="290" width="190" height="300" as="geometry">
            <mxRectangle x="260" y="290" width="70" height="30" as="alternateBounds" />
          </mxGeometry>
        </mxCell>
        <mxCell id="09l7937I86aq1Zebrn-8-3" value="C1_Flag&lt;span style=&quot;white-space: pre;&quot;&gt;&#x9;&lt;/span&gt;&lt;span style=&quot;white-space: pre;&quot;&gt;&#x9;&lt;/span&gt;" style="text;strokeColor=#314354;fillColor=#647687;align=left;verticalAlign=top;spacingLeft=4;spacingRight=4;overflow=hidden;rotatable=0;points=[[0,0.5],[1,0.5]];portConstraint=eastwest;whiteSpace=wrap;html=1;fontColor=#ffffff;" vertex="1" parent="09l7937I86aq1Zebrn-8-2">
          <mxGeometry y="26" width="190" height="26" as="geometry" />
        </mxCell>
        <mxCell id="09l7937I86aq1Zebrn-8-4" value="C1_School_Closing" style="text;strokeColor=#314354;fillColor=#647687;align=left;verticalAlign=top;spacingLeft=4;spacingRight=4;overflow=hidden;rotatable=0;points=[[0,0.5],[1,0.5]];portConstraint=eastwest;whiteSpace=wrap;html=1;fontColor=#ffffff;" vertex="1" parent="09l7937I86aq1Zebrn-8-2">
          <mxGeometry y="52" width="190" height="26" as="geometry" />
        </mxCell>
        <mxCell id="09l7937I86aq1Zebrn-8-5" value="C2_Flag&lt;br&gt;&lt;br&gt;C2_Workplace_Closing&lt;br&gt;&lt;br&gt;C3_Cancel_Public_Events&lt;br&gt;&lt;br&gt;C3_Flag&lt;br&gt;&lt;br&gt;C4_Flag&lt;br&gt;&lt;br&gt;C4_Restrictions_On_Gatherings&lt;br&gt;&lt;br&gt;C5_Close_Public_Transport" style="text;strokeColor=#314354;fillColor=#647687;align=left;verticalAlign=top;spacingLeft=4;spacingRight=4;overflow=hidden;rotatable=0;points=[[0,0.5],[1,0.5]];portConstraint=eastwest;whiteSpace=wrap;html=1;fontColor=#ffffff;" vertex="1" parent="09l7937I86aq1Zebrn-8-2">
          <mxGeometry y="78" width="190" height="222" as="geometry" />
        </mxCell>
        <mxCell id="09l7937I86aq1Zebrn-8-6" value="Dates" style="swimlane;fontStyle=0;childLayout=stackLayout;horizontal=1;startSize=26;fillColor=#b1ddf0;horizontalStack=0;resizeParent=1;resizeParentMax=0;resizeLast=0;collapsible=1;marginBottom=0;html=1;rounded=1;strokeColor=#10739e;" vertex="1" parent="1">
          <mxGeometry x="560" y="444" width="190" height="290" as="geometry">
            <mxRectangle x="560" y="444" width="70" height="30" as="alternateBounds" />
          </mxGeometry>
        </mxCell>
        <mxCell id="09l7937I86aq1Zebrn-8-7" value="Calender_Quarter" style="text;align=left;verticalAlign=top;spacingLeft=4;spacingRight=4;overflow=hidden;rotatable=0;points=[[0,0.5],[1,0.5]];portConstraint=eastwest;whiteSpace=wrap;html=1;fillColor=#647687;strokeColor=#314354;fontColor=#ffffff;" vertex="1" parent="09l7937I86aq1Zebrn-8-6">
          <mxGeometry y="26" width="190" height="26" as="geometry" />
        </mxCell>
        <mxCell id="09l7937I86aq1Zebrn-8-8" value="Calender_Quarter_Names" style="text;align=left;verticalAlign=top;spacingLeft=4;spacingRight=4;overflow=hidden;rotatable=0;points=[[0,0.5],[1,0.5]];portConstraint=eastwest;whiteSpace=wrap;html=1;fillColor=#647687;strokeColor=#314354;fontColor=#ffffff;" vertex="1" parent="09l7937I86aq1Zebrn-8-6">
          <mxGeometry y="52" width="190" height="26" as="geometry" />
        </mxCell>
        <mxCell id="09l7937I86aq1Zebrn-8-9" value="Calender_Year&lt;br&gt;&lt;br&gt;Date_Key&lt;br&gt;&lt;br&gt;Day_Name&lt;br&gt;&lt;br&gt;Day_Of_Month&lt;br&gt;&lt;br&gt;Day_Of_Quarter&lt;br&gt;&lt;br&gt;Day_Of_Week&lt;br&gt;&lt;br&gt;Day_Of_Year" style="text;align=left;verticalAlign=top;spacingLeft=4;spacingRight=4;overflow=hidden;rotatable=0;points=[[0,0.5],[1,0.5]];portConstraint=eastwest;whiteSpace=wrap;html=1;fillColor=#647687;strokeColor=#314354;fontColor=#ffffff;" vertex="1" parent="09l7937I86aq1Zebrn-8-6">
          <mxGeometry y="78" width="190" height="212" as="geometry" />
        </mxCell>
        <mxCell id="09l7937I86aq1Zebrn-8-10" value="Countries" style="swimlane;fontStyle=0;childLayout=stackLayout;horizontal=1;startSize=26;fillColor=#b1ddf0;horizontalStack=0;resizeParent=1;resizeParentMax=0;resizeLast=0;collapsible=1;marginBottom=0;html=1;rounded=1;strokeColor=#10739e;" vertex="1" parent="1">
          <mxGeometry x="560" y="160" width="190" height="170" as="geometry">
            <mxRectangle x="560" y="160" width="70" height="30" as="alternateBounds" />
          </mxGeometry>
        </mxCell>
        <mxCell id="09l7937I86aq1Zebrn-8-11" value="Country_ID" style="text;strokeColor=#314354;fillColor=#647687;align=left;verticalAlign=top;spacingLeft=4;spacingRight=4;overflow=hidden;rotatable=0;points=[[0,0.5],[1,0.5]];portConstraint=eastwest;whiteSpace=wrap;html=1;fontColor=#ffffff;" vertex="1" parent="09l7937I86aq1Zebrn-8-10">
          <mxGeometry y="26" width="190" height="26" as="geometry" />
        </mxCell>
        <mxCell id="09l7937I86aq1Zebrn-8-12" value="Country_Name" style="text;strokeColor=#314354;fillColor=#647687;align=left;verticalAlign=top;spacingLeft=4;spacingRight=4;overflow=hidden;rotatable=0;points=[[0,0.5],[1,0.5]];portConstraint=eastwest;whiteSpace=wrap;html=1;fontColor=#ffffff;" vertex="1" parent="09l7937I86aq1Zebrn-8-10">
          <mxGeometry y="52" width="190" height="26" as="geometry" />
        </mxCell>
        <mxCell id="09l7937I86aq1Zebrn-8-13" value="Country_Code&lt;br&gt;&lt;br&gt;Latitude&lt;br&gt;&lt;br&gt;Longitude&lt;br&gt;&lt;br&gt;" style="text;strokeColor=#314354;fillColor=#647687;align=left;verticalAlign=top;spacingLeft=4;spacingRight=4;overflow=hidden;rotatable=0;points=[[0,0.5],[1,0.5]];portConstraint=eastwest;whiteSpace=wrap;html=1;fontColor=#ffffff;" vertex="1" parent="09l7937I86aq1Zebrn-8-10">
          <mxGeometry y="78" width="190" height="92" as="geometry" />
        </mxCell>
        <mxCell id="09l7937I86aq1Zebrn-8-41" style="rounded=0;orthogonalLoop=1;jettySize=auto;html=1;entryX=0.5;entryY=0;entryDx=0;entryDy=0;startArrow=classic;startFill=1;strokeWidth=2;" edge="1" parent="1" source="09l7937I86aq1Zebrn-8-14" target="09l7937I86aq1Zebrn-8-18">
          <mxGeometry relative="1" as="geometry" />
        </mxCell>
        <mxCell id="09l7937I86aq1Zebrn-8-14" value="Deaths" style="swimlane;fontStyle=0;childLayout=stackLayout;horizontal=1;startSize=26;fillColor=#b1ddf0;horizontalStack=0;resizeParent=1;resizeParentMax=0;resizeLast=0;collapsible=1;marginBottom=0;html=1;rounded=1;strokeColor=#10739e;" vertex="1" parent="1">
          <mxGeometry x="880" y="160" width="190" height="110" as="geometry">
            <mxRectangle x="460" y="550" width="70" height="30" as="alternateBounds" />
          </mxGeometry>
        </mxCell>
        <mxCell id="09l7937I86aq1Zebrn-8-15" value="Deaths" style="text;strokeColor=#314354;fillColor=#647687;align=left;verticalAlign=top;spacingLeft=4;spacingRight=4;overflow=hidden;rotatable=0;points=[[0,0.5],[1,0.5]];portConstraint=eastwest;whiteSpace=wrap;html=1;fontColor=#ffffff;" vertex="1" parent="09l7937I86aq1Zebrn-8-14">
          <mxGeometry y="26" width="190" height="26" as="geometry" />
        </mxCell>
        <mxCell id="09l7937I86aq1Zebrn-8-16" value="Deaths_Changes" style="text;strokeColor=#314354;fillColor=#647687;align=left;verticalAlign=top;spacingLeft=4;spacingRight=4;overflow=hidden;rotatable=0;points=[[0,0.5],[1,0.5]];portConstraint=eastwest;whiteSpace=wrap;html=1;fontColor=#ffffff;" vertex="1" parent="09l7937I86aq1Zebrn-8-14">
          <mxGeometry y="52" width="190" height="26" as="geometry" />
        </mxCell>
        <mxCell id="09l7937I86aq1Zebrn-8-17" value="Deaths_ID&lt;br&gt;" style="text;strokeColor=#314354;fillColor=#647687;align=left;verticalAlign=top;spacingLeft=4;spacingRight=4;overflow=hidden;rotatable=0;points=[[0,0.5],[1,0.5]];portConstraint=eastwest;whiteSpace=wrap;html=1;fontColor=#ffffff;" vertex="1" parent="09l7937I86aq1Zebrn-8-14">
          <mxGeometry y="78" width="190" height="32" as="geometry" />
        </mxCell>
        <mxCell id="09l7937I86aq1Zebrn-8-18" value="Metrics" style="swimlane;fontStyle=0;childLayout=stackLayout;horizontal=1;startSize=26;fillColor=#b1ddf0;horizontalStack=0;resizeParent=1;resizeParentMax=0;resizeLast=0;collapsible=1;marginBottom=0;html=1;rounded=1;strokeColor=#10739e;" vertex="1" parent="1">
          <mxGeometry x="880" y="350" width="190" height="140" as="geometry">
            <mxRectangle x="880" y="350" width="70" height="30" as="alternateBounds" />
          </mxGeometry>
        </mxCell>
        <mxCell id="09l7937I86aq1Zebrn-8-19" value="Country_Key" style="text;strokeColor=#314354;fillColor=#647687;align=left;verticalAlign=top;spacingLeft=4;spacingRight=4;overflow=hidden;rotatable=0;points=[[0,0.5],[1,0.5]];portConstraint=eastwest;whiteSpace=wrap;html=1;fontColor=#ffffff;" vertex="1" parent="09l7937I86aq1Zebrn-8-18">
          <mxGeometry y="26" width="190" height="26" as="geometry" />
        </mxCell>
        <mxCell id="09l7937I86aq1Zebrn-8-20" value="Date_Key" style="text;strokeColor=#314354;fillColor=#647687;align=left;verticalAlign=top;spacingLeft=4;spacingRight=4;overflow=hidden;rotatable=0;points=[[0,0.5],[1,0.5]];portConstraint=eastwest;whiteSpace=wrap;html=1;fontColor=#ffffff;" vertex="1" parent="09l7937I86aq1Zebrn-8-18">
          <mxGeometry y="52" width="190" height="26" as="geometry" />
        </mxCell>
        <mxCell id="09l7937I86aq1Zebrn-8-21" value="Fact_Key&lt;br&gt;&lt;br&gt;Metrics_Key" style="text;strokeColor=#314354;fillColor=#647687;align=left;verticalAlign=top;spacingLeft=4;spacingRight=4;overflow=hidden;rotatable=0;points=[[0,0.5],[1,0.5]];portConstraint=eastwest;whiteSpace=wrap;html=1;fontColor=#ffffff;" vertex="1" parent="09l7937I86aq1Zebrn-8-18">
          <mxGeometry y="78" width="190" height="62" as="geometry" />
        </mxCell>
        <mxCell id="09l7937I86aq1Zebrn-8-22" value="Cases" style="swimlane;fontStyle=0;childLayout=stackLayout;horizontal=1;startSize=26;fillColor=#b1ddf0;horizontalStack=0;resizeParent=1;resizeParentMax=0;resizeLast=0;collapsible=1;marginBottom=0;html=1;rounded=1;strokeColor=#10739e;" vertex="1" parent="1">
          <mxGeometry x="1210" y="281" width="190" height="110" as="geometry">
            <mxRectangle x="460" y="550" width="70" height="30" as="alternateBounds" />
          </mxGeometry>
        </mxCell>
        <mxCell id="09l7937I86aq1Zebrn-8-23" value="Case_ID" style="text;strokeColor=#314354;fillColor=#647687;align=left;verticalAlign=top;spacingLeft=4;spacingRight=4;overflow=hidden;rotatable=0;points=[[0,0.5],[1,0.5]];portConstraint=eastwest;whiteSpace=wrap;html=1;fontColor=#ffffff;" vertex="1" parent="09l7937I86aq1Zebrn-8-22">
          <mxGeometry y="26" width="190" height="26" as="geometry" />
        </mxCell>
        <mxCell id="09l7937I86aq1Zebrn-8-24" value="Confirmed" style="text;strokeColor=#314354;fillColor=#647687;align=left;verticalAlign=top;spacingLeft=4;spacingRight=4;overflow=hidden;rotatable=0;points=[[0,0.5],[1,0.5]];portConstraint=eastwest;whiteSpace=wrap;html=1;fontColor=#ffffff;" vertex="1" parent="09l7937I86aq1Zebrn-8-22">
          <mxGeometry y="52" width="190" height="26" as="geometry" />
        </mxCell>
        <mxCell id="09l7937I86aq1Zebrn-8-25" value="Confirmed_Change" style="text;strokeColor=#314354;fillColor=#647687;align=left;verticalAlign=top;spacingLeft=4;spacingRight=4;overflow=hidden;rotatable=0;points=[[0,0.5],[1,0.5]];portConstraint=eastwest;whiteSpace=wrap;html=1;fontColor=#ffffff;" vertex="1" parent="09l7937I86aq1Zebrn-8-22">
          <mxGeometry y="78" width="190" height="32" as="geometry" />
        </mxCell>
        <mxCell id="09l7937I86aq1Zebrn-8-44" style="edgeStyle=orthogonalEdgeStyle;rounded=0;orthogonalLoop=1;jettySize=auto;html=1;entryX=1;entryY=0.5;entryDx=0;entryDy=0;startArrow=classic;startFill=1;strokeWidth=2;" edge="1" parent="1" source="09l7937I86aq1Zebrn-8-26" target="09l7937I86aq1Zebrn-8-21">
          <mxGeometry relative="1" as="geometry" />
        </mxCell>
        <mxCell id="09l7937I86aq1Zebrn-8-26" value="Recoveries" style="swimlane;fontStyle=0;childLayout=stackLayout;horizontal=1;startSize=26;fillColor=#b1ddf0;horizontalStack=0;resizeParent=1;resizeParentMax=0;resizeLast=0;collapsible=1;marginBottom=0;html=1;rounded=1;strokeColor=#10739e;" vertex="1" parent="1">
          <mxGeometry x="1210" y="486" width="190" height="110" as="geometry">
            <mxRectangle x="460" y="550" width="70" height="30" as="alternateBounds" />
          </mxGeometry>
        </mxCell>
        <mxCell id="09l7937I86aq1Zebrn-8-27" value="Recovered" style="text;strokeColor=#314354;fillColor=#647687;align=left;verticalAlign=top;spacingLeft=4;spacingRight=4;overflow=hidden;rotatable=0;points=[[0,0.5],[1,0.5]];portConstraint=eastwest;whiteSpace=wrap;html=1;fontColor=#ffffff;" vertex="1" parent="09l7937I86aq1Zebrn-8-26">
          <mxGeometry y="26" width="190" height="26" as="geometry" />
        </mxCell>
        <mxCell id="09l7937I86aq1Zebrn-8-28" value="Recovered_Change" style="text;strokeColor=#314354;fillColor=#647687;align=left;verticalAlign=top;spacingLeft=4;spacingRight=4;overflow=hidden;rotatable=0;points=[[0,0.5],[1,0.5]];portConstraint=eastwest;whiteSpace=wrap;html=1;fontColor=#ffffff;" vertex="1" parent="09l7937I86aq1Zebrn-8-26">
          <mxGeometry y="52" width="190" height="26" as="geometry" />
        </mxCell>
        <mxCell id="09l7937I86aq1Zebrn-8-29" value="Recoveries_ID" style="text;strokeColor=#314354;fillColor=#647687;align=left;verticalAlign=top;spacingLeft=4;spacingRight=4;overflow=hidden;rotatable=0;points=[[0,0.5],[1,0.5]];portConstraint=eastwest;whiteSpace=wrap;html=1;fontColor=#ffffff;" vertex="1" parent="09l7937I86aq1Zebrn-8-26">
          <mxGeometry y="78" width="190" height="32" as="geometry" />
        </mxCell>
        <mxCell id="09l7937I86aq1Zebrn-8-30" value="Population" style="swimlane;fontStyle=0;childLayout=stackLayout;horizontal=1;startSize=26;fillColor=#b1ddf0;horizontalStack=0;resizeParent=1;resizeParentMax=0;resizeLast=0;collapsible=1;marginBottom=0;html=1;rounded=1;strokeColor=#10739e;" vertex="1" parent="1">
          <mxGeometry x="880" y="564" width="190" height="170" as="geometry">
            <mxRectangle x="460" y="550" width="70" height="30" as="alternateBounds" />
          </mxGeometry>
        </mxCell>
        <mxCell id="09l7937I86aq1Zebrn-8-31" value="Country" style="text;strokeColor=#314354;fillColor=#647687;align=left;verticalAlign=top;spacingLeft=4;spacingRight=4;overflow=hidden;rotatable=0;points=[[0,0.5],[1,0.5]];portConstraint=eastwest;whiteSpace=wrap;html=1;fontColor=#ffffff;" vertex="1" parent="09l7937I86aq1Zebrn-8-30">
          <mxGeometry y="26" width="190" height="26" as="geometry" />
        </mxCell>
        <mxCell id="09l7937I86aq1Zebrn-8-32" value="Country_Key" style="text;strokeColor=#314354;fillColor=#647687;align=left;verticalAlign=top;spacingLeft=4;spacingRight=4;overflow=hidden;rotatable=0;points=[[0,0.5],[1,0.5]];portConstraint=eastwest;whiteSpace=wrap;html=1;fontColor=#ffffff;" vertex="1" parent="09l7937I86aq1Zebrn-8-30">
          <mxGeometry y="52" width="190" height="26" as="geometry" />
        </mxCell>
        <mxCell id="09l7937I86aq1Zebrn-8-33" value="Density&lt;br&gt;&lt;br&gt;Population_2020&lt;br&gt;&lt;br&gt;Population_2021" style="text;strokeColor=#314354;fillColor=#647687;align=left;verticalAlign=top;spacingLeft=4;spacingRight=4;overflow=hidden;rotatable=0;points=[[0,0.5],[1,0.5]];portConstraint=eastwest;whiteSpace=wrap;html=1;fontColor=#ffffff;" vertex="1" parent="09l7937I86aq1Zebrn-8-30">
          <mxGeometry y="78" width="190" height="92" as="geometry" />
        </mxCell>
        <mxCell id="09l7937I86aq1Zebrn-8-38" value="" style="endArrow=classic;startArrow=classic;html=1;rounded=0;entryX=0;entryY=0.5;entryDx=0;entryDy=0;exitX=1;exitY=0.5;exitDx=0;exitDy=0;strokeWidth=2;" edge="1" parent="1" source="09l7937I86aq1Zebrn-8-13" target="09l7937I86aq1Zebrn-8-20">
          <mxGeometry width="50" height="50" relative="1" as="geometry">
            <mxPoint x="690" y="290" as="sourcePoint" />
            <mxPoint x="860" y="430" as="targetPoint" />
            <Array as="points">
              <mxPoint x="770" y="284" />
              <mxPoint x="770" y="415" />
            </Array>
          </mxGeometry>
        </mxCell>
        <mxCell id="09l7937I86aq1Zebrn-8-42" style="edgeStyle=orthogonalEdgeStyle;rounded=0;orthogonalLoop=1;jettySize=auto;html=1;exitX=0.5;exitY=0;exitDx=0;exitDy=0;entryX=0.499;entryY=1;entryDx=0;entryDy=0;entryPerimeter=0;strokeWidth=2;" edge="1" parent="1" source="09l7937I86aq1Zebrn-8-30" target="09l7937I86aq1Zebrn-8-21">
          <mxGeometry relative="1" as="geometry" />
        </mxCell>
        <mxCell id="09l7937I86aq1Zebrn-8-43" style="edgeStyle=orthogonalEdgeStyle;rounded=0;orthogonalLoop=1;jettySize=auto;html=1;entryX=1;entryY=0.5;entryDx=0;entryDy=0;startArrow=classic;startFill=1;strokeWidth=2;" edge="1" parent="1" source="09l7937I86aq1Zebrn-8-25" target="09l7937I86aq1Zebrn-8-20">
          <mxGeometry relative="1" as="geometry" />
        </mxCell>
        <mxCell id="09l7937I86aq1Zebrn-8-45" style="edgeStyle=orthogonalEdgeStyle;rounded=0;orthogonalLoop=1;jettySize=auto;html=1;entryX=0;entryY=0.5;entryDx=0;entryDy=0;strokeWidth=2;" edge="1" parent="1" source="09l7937I86aq1Zebrn-8-9" target="09l7937I86aq1Zebrn-8-21">
          <mxGeometry relative="1" as="geometry" />
        </mxCell>
        <mxCell id="09l7937I86aq1Zebrn-8-46" style="edgeStyle=orthogonalEdgeStyle;rounded=0;orthogonalLoop=1;jettySize=auto;html=1;entryX=1;entryY=0.5;entryDx=0;entryDy=0;strokeWidth=2;" edge="1" parent="1" source="09l7937I86aq1Zebrn-8-9" target="09l7937I86aq1Zebrn-8-5">
          <mxGeometry relative="1" as="geometry" />
        </mxCell>
        <mxCell id="09l7937I86aq1Zebrn-8-47" style="edgeStyle=orthogonalEdgeStyle;rounded=0;orthogonalLoop=1;jettySize=auto;html=1;entryX=1;entryY=0.279;entryDx=0;entryDy=0;entryPerimeter=0;strokeWidth=2;" edge="1" parent="1" source="09l7937I86aq1Zebrn-8-13" target="09l7937I86aq1Zebrn-8-5">
          <mxGeometry relative="1" as="geometry" />
        </mxCell>
        <mxCell id="09l7937I86aq1Zebrn-8-48" value="&lt;h1&gt;&lt;font style=&quot;font-size: 59px;&quot; face=&quot;Garamond&quot;&gt;&amp;nbsp;Galaxy Schema&amp;nbsp;&lt;/font&gt;&lt;/h1&gt;" style="text;html=1;strokeColor=none;fillColor=none;spacing=5;spacingTop=-20;overflow=hidden;rounded=0;align=center;verticalAlign=middle;labelBorderColor=default;labelBackgroundColor=none;whiteSpace=wrap;" vertex="1" parent="1">
          <mxGeometry x="550" y="-10" width="550" height="120" as="geometry" />
        </mxCell>
      </root>
    </mxGraphModel>
  </diagram>
</mxfile>
